<?xml version="1.0" encoding="utf-8"?>
<!-- Generator: Adobe Illustrator 18.1.0, SVG Export Plug-In . SVG Version: 6.00 Build 0)  -->
<!DOCTYPE svg PUBLIC "-//W3C//DTD SVG 1.1//EN" "http://www.w3.org/Graphics/SVG/1.1/DTD/svg11.dtd">
<svg version="1.1" id="Layer_1" xmlns:sketch="http://www.bohemiancoding.com/sketch/ns"
	 xmlns="http://www.w3.org/2000/svg" xmlns:xlink="http://www.w3.org/1999/xlink" x="0px" y="0px" viewBox="-54 50 36 45"
	 enable-background="new -54 50 36 45" xml:space="preserve">
<title>Rectangle 38 + ? copy + Path 19</title>
<desc>Created with Sketch.</desc>
<path id="Rectangle-38" sketch:type="MSShapeGroup" fill="none" stroke="#307699" stroke-width="2" d="M-53,54c0-1.7,1.3-3,3-3h28
	c1.7,0,3,1.3,3,3v26c0,1.7-1.3,3-3,3h-12.2l-10.9,7.8V83H-50c-1.7,0-3-1.3-3-3V54z"/>
<path id="Path-19" sketch:type="MSShapeGroup" opacity="0.3807" fill="none" stroke="#8DC5D8" stroke-linecap="round" enable-background="new    " d="
	M-50.5,84.5h3.9v9.3l12.6-9.3h12.3"/>
<path fill="none" stroke="#8DC5D8" stroke-linecap="round" stroke-miterlimit="10" d="M-40.6,62.6c0-5.1,8.5-5.5,8.5,0.7
	c0,2.5-2.8,4.3-4.3,4.9c0,0.3,0,3.5,0,3.5"/>
<circle fill="#8DC5D8" cx="-36.3" cy="75.8" r="1"/>
</svg>
